# xmcd CD database file
#
# Track frame offsets:
#	150
#	17337
#	42412
#	60823
#	80225
#	98279
#	114283
#	129273
#	148199
#	167151
#	182532
#
# Disc length: 2664 seconds
#
# Revision: 0
# Processed by: cddbd v1.5.1PL2 Copyright (c) Steve Scherf et al.
# Submitted via: CDex 1.40PlusFr
#
DISCID=7e0a660b
DTITLE=Beck Bogert Appice - Beck Bogert and Appice
DYEAR=2005
DGENRE=Blues
TTITLE0=Black Cat Moan
TTITLE1=Lady
TTITLE2=Oh To Love You
TTITLE3=Superstition
TTITLE4=Sweet Sweet Surrender
TTITLE5=Why Should I Care
TTITLE6=Lose Myself With You
TTITLE7=Livin' Alone
TTITLE8=I'm So Proud
TTITLE9=I'm So Proud (Single)
TTITLE10=Lady (Single)
EXTD=YEAR: 2005 ID3G: 0
EXTT0=
EXTT1=
EXTT2=
EXTT3=
EXTT4=
EXTT5=
EXTT6=
EXTT7=
EXTT8=
EXTT9=
EXTT10=
PLAYORDER=
